<?xml version="1.0" encoding="utf-8"?>
<!-- Generator: Adobe Illustrator 18.0.0, SVG Export Plug-In . SVG Version: 6.00 Build 0)  -->
<!DOCTYPE svg PUBLIC "-//W3C//DTD SVG 1.1//EN" "http://www.w3.org/Graphics/SVG/1.1/DTD/svg11.dtd">
<svg version="1.1" id="Layer_1" xmlns="http://www.w3.org/2000/svg" xmlns:xlink="http://www.w3.org/1999/xlink" x="0px" y="0px"
	 viewBox="0 0 64 64" enable-background="new 0 0 64 64" xml:space="preserve">
<g>
	<g>
		<g>
			<circle fill="#A5F9E1" cx="32.2" cy="32" r="32"/>
		</g>
	</g>
	<g>
		<g>
			<path fill="#306CC4" d="M56.3,26.9v10.2c0,0.4-0.4,0.8-0.8,0.8L8.5,37.8c-0.4,0-0.8-0.4-0.8-0.8L8,32.8c0.2-2.6,2.2-4.6,4.7-5
				l6.7-0.6l5.9-3.8c3-1.9,6.4-3,9.9-3.2c3.7-0.2,7.3,0.5,10.5,2.2c3,1.5,6.3,3.2,6.7,3.4C53.5,26.6,54.9,26.9,56.3,26.9z"/>
		</g>
	</g>
	<g>
		<g>
			<path fill="#7BE3FF" d="M39.2,26.7l10.4-0.4c-0.3-0.2-3-1.6-5.4-2.8c-1.6-0.8-3.3-1.4-5-1.6V26.7z"/>
		</g>
	</g>
	<g>
		<g>
			<path fill="#7BE3FF" d="M37.8,21.6c-0.9-0.1-1.4-0.1-2.3,0l-0.9,0.1c-2.8,0.3-5.5,1.2-7.9,2.8l-4.4,2.9l15.5-0.7V21.6z"/>
		</g>
	</g>
	<g>
		<g>
			<path fill="#363D44" d="M37.1,29.6h-1.8c-0.3,0-0.5-0.2-0.5-0.5v0c0-0.3,0.2-0.5,0.5-0.5h1.8c0.3,0,0.5,0.2,0.5,0.5v0
				C37.6,29.4,37.3,29.6,37.1,29.6z"/>
		</g>
	</g>
	<g>
		<g>
			<path fill="#F1455B" d="M56.3,26.9c-1,0-1.9-0.2-2.8-0.5v0.1l0.7,4.8l2.1,1.5V26.9z"/>
		</g>
	</g>
	<g>
		<g>
			<path fill="#FFF276" d="M55.3,26.9l-0.1,0l0.3,3.4h0.9v-3.3l0,0C56,26.9,55.6,26.9,55.3,26.9z"/>
		</g>
	</g>
	<g>
		<g>
			<g>
				<path fill="#9FEDFF" d="M26.7,24.4l-4.4,2.9l6.7-0.3l-1.2-3.3C27.4,24,27.1,24.2,26.7,24.4z"/>
			</g>
		</g>
		<g>
			<g>
				<path fill="#9FEDFF" d="M28.6,23.4l1.4,3.7l1.4-0.1l-1.6-4.2C29.4,23,29,23.2,28.6,23.4z"/>
			</g>
		</g>
		<g>
			<g>
				<path fill="#9FEDFF" d="M44.2,23.4c-0.2-0.1-0.5-0.2-0.7-0.3l1.3,3.4l4.9-0.2C49.3,26,46.6,24.6,44.2,23.4z"/>
			</g>
		</g>
		<g>
			<g>
				<path fill="#9FEDFF" d="M40.7,22l1.7,4.5l0.8,0l-1.6-4.2C41.3,22.2,41,22.1,40.7,22z"/>
			</g>
		</g>
	</g>
	<g>
		<g>
			<path fill="#20599E" d="M52,35.3c-1-1.3-2.6-2.2-4.4-2.2c-1.8,0-3.4,0.9-4.4,2.2H20.5c-1-1.4-2.6-2.3-4.4-2.3
				c-1.8,0-3.4,0.9-4.4,2.3H7.8L7.7,37c0,0.4,0.4,0.8,0.8,0.8l6.6,0l6.5,0l0,0l34,0.1c0.4,0,0.8-0.4,0.8-0.8v-1.9H52z"/>
		</g>
	</g>
	<g>
		<g>
			<path fill="#363D44" d="M20.6,38.5c0,2.5-2,4.5-4.5,4.5s-4.5-2-4.5-4.5s2-4.5,4.5-4.5S20.6,36,20.6,38.5z"/>
		</g>
	</g>
	<g>
		<g>
			<path fill="#A9B8C9" d="M19.1,38.5c0,1.7-1.3,3-3,3c-1.7,0-3-1.3-3-3s1.3-3,3-3C17.7,35.5,19.1,36.9,19.1,38.5z"/>
		</g>
	</g>
	<g>
		<g>
			<path fill="#BFCFE0" d="M16.1,41.8c-1.8,0-3.2-1.5-3.2-3.2s1.5-3.2,3.2-3.2s3.2,1.5,3.2,3.2S17.9,41.8,16.1,41.8z M16.1,35.8
				c-1.5,0-2.8,1.2-2.8,2.8s1.2,2.8,2.8,2.8s2.8-1.2,2.8-2.8S17.6,35.8,16.1,35.8z"/>
		</g>
	</g>
	<g>
		<g>
			<circle fill="#FFFFFF" cx="16.1" cy="38.5" r="1.6"/>
		</g>
	</g>
	<g>
		<g>
			<path fill="#363D44" d="M52.1,38.5c0,2.5-2,4.5-4.5,4.5c-2.5,0-4.5-2-4.5-4.5c0-2.5,2-4.5,4.5-4.5C50.1,34,52.1,36,52.1,38.5z"/>
		</g>
	</g>
	<g>
		<g>
			<path fill="#A9B8C9" d="M50.6,38.5c0,1.7-1.3,3-3,3c-1.7,0-3-1.3-3-3c0-1.7,1.3-3,3-3C49.3,35.5,50.6,36.9,50.6,38.5z"/>
		</g>
	</g>
	<g>
		<g>
			<path fill="#BFCFE0" d="M47.6,41.8c-1.8,0-3.2-1.5-3.2-3.2s1.5-3.2,3.2-3.2s3.2,1.5,3.2,3.2S49.4,41.8,47.6,41.8z M47.6,35.8
				c-1.5,0-2.8,1.2-2.8,2.8s1.2,2.8,2.8,2.8s2.8-1.2,2.8-2.8S49.1,35.8,47.6,35.8z"/>
		</g>
	</g>
	<g>
		<g>
			<circle fill="#FFFFFF" cx="47.6" cy="38.5" r="1.6"/>
		</g>
	</g>
	<g>
		<g>
			<path fill="#FFFCEE" d="M9.5,29.4c-0.8,0.8-1.3,1.8-1.5,3c0,0,3-0.4,3.5-2.4c0.1-0.2,0.2-0.4,0.3-0.6H9.5z"/>
		</g>
	</g>
	<g>
		<g>
			<path fill="#FFFCEE" d="M9.5,29.4c-0.9,0.8-1.4,1.9-1.5,3c0,0,3-0.4,3.5-2.4c0.1-0.2,0.2-0.4,0.3-0.6H9.5z"/>
		</g>
	</g>
	<g>
		<g>
			<g>
				<path fill="#FF974A" d="M11.9,29.4c-0.1,0.2-0.2,0.4-0.3,0.6c-0.2,0.8-0.9,1.4-1.6,1.7l0,0c1.6-0.1,2.2-1,2.3-1.5
					c0.1-0.5,0.4-0.9,0.4-0.9H11.9z"/>
			</g>
		</g>
	</g>
</g>
</svg>
